<svg xmlns="http://www.w3.org/2000/svg" viewBox="115.761 -1534.000 16108.569 1986.000" fill="currentColor" role="img" aria-labelledby="wordmark-title">
  <title id="wordmark-title">ManSeekSong OS</title>
  <desc>Inter outlines. Uniform medium strokes and a shared baseline. Individual glyph paths remain editable.</desc>
  <path id="name-0-M" d="M135.761 0V-1490H448.614L782.699 -617.271Q796.419 -580.231 815.319 -526.122Q834.219 -472.013 854.208 -413.094Q874.198 -354.174 891.828 -301.295Q909.458 -248.416 919.998 -213.837H867.119Q877.659 -248.416 894.879 -301.295Q912.099 -354.174 931.999 -413.094Q951.899 -472.013 970.709 -526.122Q989.519 -580.231 1002.419 -617.271L1331.223 -1490H1645.076V0H1426.5V-812.165Q1426.5 -860.705 1427.36 -920.385Q1428.22 -980.064 1429.99 -1044.904Q1431.76 -1109.743 1433.44 -1175.852Q1435.12 -1241.961 1435.94 -1303.361H1464.9Q1440.62 -1230.481 1416.44 -1158.812Q1392.26 -1087.142 1370.22 -1022.393Q1348.18 -957.644 1329.46 -904.114Q1310.74 -850.585 1296.38 -812.165L981.517 0H799.68L482.637 -812.165Q468.277 -850.585 448.967 -904.114Q429.657 -957.644 407.118 -1022.393Q384.578 -1087.142 359.488 -1158.812Q334.398 -1230.481 308.298 -1303.361H345.717Q347.357 -1241.961 348.627 -1175.852Q349.897 -1109.743 351.667 -1044.904Q353.437 -980.064 354.297 -920.385Q355.157 -860.705 355.157 -812.165V0Z"/>
  <path id="name-1-a" d="M2185.134 16.54Q2079.954 16.54 1997.314 -19.1Q1914.674 -54.74 1866.624 -125.79Q1818.574 -196.84 1818.574 -301.84Q1818.574 -392.48 1853.264 -450.29Q1887.954 -508.1 1946.734 -541.86Q2005.514 -575.62 2080.744 -593.25Q2155.974 -610.88 2236.054 -620.16Q2335.614 -632.72 2393.344 -640.35Q2451.074 -647.98 2475.664 -664.34Q2500.254 -680.7 2500.254 -718.72V-727.64Q2500.254 -779.341 2475.004 -818.891Q2449.754 -858.442 2401.934 -881.062Q2354.113 -903.682 2286.772 -903.682Q2219.892 -903.682 2168.431 -881.612Q2116.971 -859.542 2086.62 -821.231Q2056.27 -782.921 2052.27 -733.881H1844.534Q1850.254 -835.02 1906.153 -911.96Q1962.053 -988.9 2060.023 -1032.81Q2157.993 -1076.72 2289.652 -1076.72Q2387.052 -1076.72 2464.971 -1051.81Q2542.891 -1026.9 2597.371 -980.54Q2651.85 -934.18 2680.57 -869.19Q2709.29 -804.2 2709.29 -724.04V0H2501.334V-149.64H2497.334Q2475.455 -107.14 2437.015 -69Q2398.575 -30.86 2337.335 -7.16Q2276.095 16.54 2185.134 16.54ZM2228.212 -152.918Q2321.233 -152.918 2381.824 -186.639Q2442.414 -220.359 2471.694 -275.32Q2500.974 -330.28 2500.974 -395.32V-518.681Q2490.074 -510.401 2465.374 -502.941Q2440.674 -495.481 2405.684 -488.521Q2370.693 -481.561 2330.063 -475.011Q2289.433 -468.461 2247.492 -462.641Q2190.092 -454.821 2140.091 -436.311Q2090.091 -417.801 2059.331 -384.91Q2028.57 -352.02 2028.57 -297.96Q2028.57 -252.919 2053.001 -220.299Q2077.431 -187.679 2122.291 -170.298Q2167.152 -152.918 2228.212 -152.918Z"/>
  <path id="name-2-n" d="M3121.424 -607.561V0H2910.028V-1056H3117.244V-793.701H3068.524Q3119.984 -935.801 3212.574 -1006.26Q3305.164 -1076.72 3436.463 -1076.72Q3545.443 -1076.72 3631.823 -1029.5Q3718.203 -982.28 3768.453 -889.28Q3818.704 -796.28 3818.704 -657.8V0H3607.308V-631.761Q3607.308 -758.502 3546.757 -823.233Q3486.207 -887.963 3375.846 -887.963Q3304.245 -887.963 3246.645 -858.943Q3189.044 -829.923 3155.234 -768.102Q3121.424 -706.282 3121.424 -607.561Z"/>
  <path id="name-3-S" d="M4562.399 24Q4384.28 24 4255.22 -37.23Q4126.16 -98.46 4056.261 -212.09Q3986.361 -325.72 3986.361 -482.88H4207.977Q4208.517 -385.159 4250.677 -314.688Q4292.837 -244.218 4372.528 -206.867Q4452.218 -169.517 4563.299 -169.517Q4664.56 -169.517 4739.39 -198.727Q4814.221 -227.938 4856.071 -281.628Q4897.922 -335.319 4897.922 -407.939Q4897.922 -465.26 4869.462 -507.84Q4841.002 -550.421 4778.391 -582.311Q4715.781 -614.201 4612.101 -638.401L4448.52 -677.062Q4222.68 -730.362 4119.34 -827.421Q4016.001 -924.481 4016.001 -1079.001Q4016.001 -1210.341 4081.93 -1307.91Q4147.86 -1405.48 4267.64 -1459.74Q4387.419 -1514 4547.099 -1514Q4707.678 -1514 4825.688 -1457.05Q4943.698 -1400.1 5009.497 -1294.84Q5075.297 -1189.58 5079.477 -1044.241H4864.761Q4856.941 -1173.082 4770.97 -1246.372Q4685 -1319.663 4543.619 -1319.663Q4454.458 -1319.663 4385.267 -1290.453Q4316.077 -1261.242 4276.637 -1209.372Q4237.196 -1157.501 4237.196 -1089.981Q4237.196 -1035.94 4265.936 -996.18Q4294.677 -956.42 4357.297 -926.029Q4419.917 -895.639 4522.338 -870.979L4682.519 -832.579Q4794.938 -806.118 4877.188 -768.298Q4959.438 -730.478 5013.108 -679.938Q5066.778 -629.399 5093.137 -564.729Q5119.497 -500.059 5119.497 -420.079Q5119.497 -286.219 5050.738 -186.15Q4981.978 -86.08 4856.788 -31.04Q4731.598 24 4562.399 24Z"/>
  <path id="name-4-e" d="M5728.213 24Q5571.593 24 5458.943 -46.91Q5346.294 -117.82 5285.864 -242.41Q5225.434 -367 5225.434 -526.36Q5225.434 -687.54 5288.234 -812.45Q5351.034 -937.36 5462.003 -1008.68Q5572.973 -1080 5716.933 -1080Q5829.093 -1080 5919.842 -1040.09Q6010.592 -1000.18 6075.572 -926.45Q6140.552 -852.72 6175.312 -751.67Q6210.071 -650.62 6210.071 -528.34V-470.541H5320.474V-630.579H6099.413L6006.435 -581.739Q6006.435 -680.38 5971.085 -752.681Q5935.734 -824.982 5871.314 -864.432Q5806.893 -903.882 5718.913 -903.882Q5631.932 -903.882 5567.831 -864.432Q5503.731 -824.982 5468.38 -752.681Q5433.03 -680.38 5433.03 -581.739V-490.841Q5433.03 -391.02 5467.83 -314.579Q5502.631 -238.139 5569.321 -195.228Q5636.012 -152.318 5731.093 -152.318Q5800.333 -152.318 5853.284 -173.568Q5906.234 -194.818 5941.304 -232.949Q5976.374 -271.079 5991.475 -321.219H6194.591Q6174.771 -218.96 6109.431 -141.29Q6044.092 -63.62 5945.812 -19.81Q5847.532 24 5728.213 24Z"/>
  <path id="name-5-e" d="M6806.627 24Q6650.007 24 6537.358 -46.91Q6424.708 -117.82 6364.278 -242.41Q6303.848 -367 6303.848 -526.36Q6303.848 -687.54 6366.648 -812.45Q6429.448 -937.36 6540.418 -1008.68Q6651.387 -1080 6795.347 -1080Q6907.507 -1080 6998.257 -1040.09Q7089.006 -1000.18 7153.986 -926.45Q7218.966 -852.72 7253.726 -751.67Q7288.486 -650.62 7288.486 -528.34V-470.541H6398.888V-630.579H7177.827L7084.849 -581.739Q7084.849 -680.38 7049.499 -752.681Q7014.149 -824.982 6949.728 -864.432Q6885.308 -903.882 6797.327 -903.882Q6710.346 -903.882 6646.246 -864.432Q6582.145 -824.982 6546.795 -752.681Q6511.444 -680.38 6511.444 -581.739V-490.841Q6511.444 -391.02 6546.245 -314.579Q6581.045 -238.139 6647.735 -195.228Q6714.426 -152.318 6809.507 -152.318Q6878.747 -152.318 6931.698 -173.568Q6984.648 -194.818 7019.718 -232.949Q7054.789 -271.079 7069.889 -321.219H7273.005Q7253.185 -218.96 7187.846 -141.29Q7122.506 -63.62 7024.226 -19.81Q6925.947 24 6806.627 24Z"/>
  <path id="name-6-k" d="M7628.559 -354.803V-604.578H7647.499L8098.363 -1056H8360.118L7857.997 -545.561H7824.719ZM7433.743 0V-1490H7645.139V0ZM8131.323 0 7733.36 -498.562 7878.197 -645.719 8390.159 0Z"/>
  <path id="name-7-S" d="M9014.318 24Q8836.199 24 8707.139 -37.23Q8578.079 -98.46 8508.179 -212.09Q8438.279 -325.72 8438.279 -482.88H8659.896Q8660.436 -385.159 8702.596 -314.688Q8744.756 -244.218 8824.447 -206.867Q8904.137 -169.517 9015.218 -169.517Q9116.479 -169.517 9191.309 -198.727Q9266.14 -227.938 9307.99 -281.628Q9349.841 -335.319 9349.841 -407.939Q9349.841 -465.26 9321.38 -507.84Q9292.92 -550.421 9230.31 -582.311Q9167.7 -614.201 9064.02 -638.401L8900.439 -677.062Q8674.599 -730.362 8571.259 -827.421Q8467.919 -924.481 8467.919 -1079.001Q8467.919 -1210.341 8533.849 -1307.91Q8599.779 -1405.48 8719.559 -1459.74Q8839.338 -1514 8999.018 -1514Q9159.597 -1514 9277.607 -1457.05Q9395.616 -1400.1 9461.416 -1294.84Q9527.216 -1189.58 9531.396 -1044.241H9316.68Q9308.86 -1173.082 9222.889 -1246.372Q9136.919 -1319.663 8995.537 -1319.663Q8906.377 -1319.663 8837.186 -1290.453Q8767.996 -1261.242 8728.555 -1209.372Q8689.115 -1157.501 8689.115 -1089.981Q8689.115 -1035.94 8717.855 -996.18Q8746.595 -956.42 8809.216 -926.029Q8871.836 -895.639 8974.257 -870.979L9134.437 -832.579Q9246.857 -806.118 9329.107 -768.298Q9411.357 -730.478 9465.026 -679.938Q9518.696 -629.399 9545.056 -564.729Q9571.416 -500.059 9571.416 -420.079Q9571.416 -286.219 9502.656 -186.15Q9433.897 -86.08 9308.707 -31.04Q9183.517 24 9014.318 24Z"/>
  <path id="name-8-o" d="M10182.831 24Q10032.332 24 9918.322 -45.96Q9804.313 -115.92 9740.833 -239.92Q9677.353 -363.92 9677.353 -526.36Q9677.353 -689.62 9740.833 -814.35Q9804.313 -939.08 9918.322 -1009.54Q10032.332 -1080 10182.831 -1080Q10334.331 -1080 10447.841 -1009.54Q10561.35 -939.08 10624.83 -814.35Q10688.31 -689.62 10688.31 -526.36Q10688.31 -363.92 10624.83 -239.92Q10561.35 -115.92 10447.841 -45.96Q10334.331 24 10182.831 24ZM10182.831 -158.437Q10273.472 -158.437 10338.713 -203.478Q10403.954 -248.518 10439.254 -331.539Q10474.554 -414.559 10474.554 -526.36Q10474.554 -639.981 10439.254 -722.911Q10403.954 -805.842 10338.713 -851.702Q10273.472 -897.563 10182.831 -897.563Q10093.19 -897.563 10027.45 -852.112Q9961.709 -806.662 9926.409 -723.321Q9891.109 -639.981 9891.109 -526.36Q9891.109 -413.739 9926.409 -331.129Q9961.709 -248.518 10027.04 -203.478Q10092.37 -158.437 10182.831 -158.437Z"/>
  <path id="name-9-n" d="M11048.963 -607.561V0H10837.567V-1056H11044.783V-793.701H10996.063Q11047.523 -935.801 11140.113 -1006.26Q11232.703 -1076.72 11364.002 -1076.72Q11472.982 -1076.72 11559.362 -1029.5Q11645.742 -982.28 11695.993 -889.28Q11746.243 -796.28 11746.243 -657.8V0H11534.847V-631.761Q11534.847 -758.502 11474.297 -823.233Q11413.746 -887.963 11303.385 -887.963Q11231.785 -887.963 11174.184 -858.943Q11116.584 -829.923 11082.773 -768.102Q11048.963 -706.282 11048.963 -607.561Z"/>
  <path id="name-10-g" d="M12407.698 432Q12278.44 432 12179.97 393.43Q12081.5 354.86 12021.36 281.561Q11961.22 208.261 11947.5 104.801L12158.216 104.801Q12171.777 156.041 12206.627 190.302Q12241.477 224.562 12292.838 242.122Q12344.198 259.682 12407.698 259.682Q12535.8 259.682 12607.96 190.952Q12680.121 122.221 12680.121 -5.759V-166.299H12679.121Q12642.821 -105.119 12593.26 -65.119Q12543.7 -25.119 12483.33 -5.799Q12422.96 13.521 12353.14 13.521Q12215.96 13.521 12112.64 -55.709Q12009.32 -124.939 11952.41 -247.629Q11895.5 -370.32 11895.5 -530.52Q11895.5 -692.26 11952.68 -815.4Q12009.86 -938.54 12113.09 -1007.63Q12216.32 -1076.72 12352.42 -1076.72Q12421.42 -1076.72 12482.57 -1057.63Q12543.721 -1038.54 12594.601 -998.26Q12645.481 -957.98 12680.581 -895.14H12681.581V-1056H12889.337V-13.679Q12889.337 146.101 12824.567 244.161Q12759.797 342.22 12650.287 387.11Q12540.777 432 12407.698 432ZM12395.878 -167.017Q12486.139 -167.017 12552.74 -212.237Q12619.34 -257.457 12655.641 -339.708Q12691.941 -421.959 12691.941 -531.96Q12691.941 -642.781 12655.641 -724.941Q12619.34 -807.102 12552.74 -852.232Q12486.139 -897.363 12395.878 -897.363Q12311.538 -897.363 12246.797 -855.512Q12182.057 -813.662 12145.656 -732.321Q12109.256 -650.981 12109.256 -531.96Q12109.256 -413.758 12145.656 -332.328Q12182.057 -250.897 12246.797 -208.957Q12311.538 -167.017 12395.878 -167.017Z"/>
  <path id="suffix-0-O" d="M14266.117 24Q14068.038 24 13912.968 -73.2Q13757.898 -170.4 13669.278 -343.54Q13580.658 -516.68 13580.658 -744Q13580.658 -973.32 13669.278 -1146.55Q13757.898 -1319.78 13912.968 -1416.89Q14068.038 -1514 14266.117 -1514Q14465.017 -1514 14619.587 -1416.89Q14774.157 -1319.78 14862.867 -1146.55Q14951.577 -973.32 14951.577 -744Q14951.577 -516.5 14862.867 -343.36Q14774.157 -170.22 14619.587 -73.11Q14465.017 24 14266.117 24ZM14266.117 -178.556Q14394.458 -178.556 14499.359 -244.277Q14604.26 -309.997 14666.32 -436.348Q14728.381 -562.699 14728.381 -744Q14728.381 -926.301 14666.32 -1053.152Q14604.26 -1180.003 14499.359 -1245.723Q14394.458 -1311.444 14266.117 -1311.444Q14137.957 -1311.444 14033.056 -1245.723Q13928.155 -1180.003 13866.005 -1053.152Q13803.854 -926.301 13803.854 -744Q13803.854 -562.699 13866.005 -436.348Q13928.155 -309.997 14033.056 -244.277Q14137.957 -178.556 14266.117 -178.556Z"/>
  <path id="suffix-1-S" d="M15647.232 24Q15469.113 24 15340.053 -37.23Q15210.994 -98.46 15141.094 -212.09Q15071.194 -325.72 15071.194 -482.88H15292.81Q15293.35 -385.159 15335.51 -314.688Q15377.67 -244.218 15457.361 -206.867Q15537.051 -169.517 15648.132 -169.517Q15749.393 -169.517 15824.224 -198.727Q15899.054 -227.938 15940.905 -281.628Q15982.755 -335.319 15982.755 -407.939Q15982.755 -465.26 15954.295 -507.84Q15925.835 -550.421 15863.225 -582.311Q15800.614 -614.201 15696.934 -638.401L15533.354 -677.062Q15307.513 -730.362 15204.174 -827.421Q15100.834 -924.481 15100.834 -1079.001Q15100.834 -1210.341 15166.764 -1307.91Q15232.693 -1405.48 15352.473 -1459.74Q15472.253 -1514 15631.932 -1514Q15792.512 -1514 15910.521 -1457.05Q16028.531 -1400.1 16094.331 -1294.84Q16160.13 -1189.58 16164.31 -1044.241H15949.594Q15941.774 -1173.082 15855.804 -1246.372Q15769.833 -1319.663 15628.452 -1319.663Q15539.291 -1319.663 15470.101 -1290.453Q15400.91 -1261.242 15361.47 -1209.372Q15322.029 -1157.501 15322.029 -1089.981Q15322.029 -1035.94 15350.77 -996.18Q15379.51 -956.42 15442.13 -926.029Q15504.75 -895.639 15607.171 -870.979L15767.352 -832.579Q15879.771 -806.118 15962.021 -768.298Q16044.271 -730.478 16097.941 -679.938Q16151.611 -629.399 16177.971 -564.729Q16204.331 -500.059 16204.331 -420.079Q16204.331 -286.219 16135.571 -186.15Q16066.811 -86.08 15941.621 -31.04Q15816.432 24 15647.232 24Z"/>
</svg>
